<?xml version="1.0" encoding="UTF-8" standalone="no"?>
<!-- Created with Inkscape (http://www.inkscape.org/) -->

<svg
   width="46.855335mm"
   height="92.746208mm"
   viewBox="0 0 46.855335 92.746206"
   version="1.1"
   id="svg5"
   inkscape:version="1.1 (c68e22c387, 2021-05-23)"
   sodipodi:docname="misi-2.svg"
   xmlns:inkscape="http://www.inkscape.org/namespaces/inkscape"
   xmlns:sodipodi="http://sodipodi.sourceforge.net/DTD/sodipodi-0.dtd"
   xmlns="http://www.w3.org/2000/svg"
   xmlns:svg="http://www.w3.org/2000/svg">
  <sodipodi:namedview
     id="namedview7"
     pagecolor="#ffffff"
     bordercolor="#999999"
     borderopacity="1"
     inkscape:pageshadow="0"
     inkscape:pageopacity="0"
     inkscape:pagecheckerboard="0"
     inkscape:document-units="mm"
     showgrid="false"
     inkscape:snap-page="false"
     inkscape:snap-intersection-paths="true"
     inkscape:snap-smooth-nodes="false"
     inkscape:snap-center="false"
     inkscape:object-paths="true"
     inkscape:snap-others="true"
     inkscape:zoom="0.90509668"
     inkscape:cx="12.705825"
     inkscape:cy="45.851455"
     inkscape:window-width="1920"
     inkscape:window-height="991"
     inkscape:window-x="-9"
     inkscape:window-y="-9"
     inkscape:window-maximized="1"
     inkscape:current-layer="g85664"
     fit-margin-top="0"
     fit-margin-left="0"
     fit-margin-right="0"
     fit-margin-bottom="0" />
  <defs
     id="defs2" />
  <g
     inkscape:label="Layer 1"
     inkscape:groupmode="layer"
     id="layer1"
     transform="translate(519.02259,-494.18233)">
    <g
       id="g85664"
       transform="translate(-195.13021,-335.6901)">
      <g
         id="g1853"
         transform="matrix(0.52675869,0,0,0.52675869,-153.27925,436.62125)">
        <rect
           style="fill:#f7f8f3;fill-opacity:1;stroke-width:0"
           id="rect25029"
           width="88.950272"
           height="176.06963"
           x="-323.89236"
           y="746.54901" />
        <path
           id="circle25373"
           style="fill:#e6ebf3;fill-opacity:1;stroke:none;stroke-width:0"
           d="m -279.41705,866.31869 a 58.757534,58.757534 0 0 0 -44.47533,20.42253 v 35.8774 h 88.95013 v -35.93424 a 58.757534,58.757534 0 0 0 -44.4748,-20.36569 z" />
        <path
           id="path25291"
           style="fill:#cfd8e6;fill-opacity:1;stroke:none;stroke-width:0"
           d="m -279.41705,902.27464 a 16.662584,16.662584 0 0 0 -16.66256,16.66255 16.662584,16.662584 0 0 0 0.41238,3.68143 h 32.49983 a 16.662584,16.662584 0 0 0 0.41289,-3.68143 16.662584,16.662584 0 0 0 -16.66254,-16.66255 z" />
      </g>
    </g>
    <g
       id="g86235"
       transform="matrix(0.33316822,0,0,0.33316822,82.200803,88.746591)">
      <rect
         style="fill:#f7444e;fill-opacity:1;stroke-width:0"
         id="rect85666"
         width="88.950272"
         height="176.06963"
         x="-178.83595"
         y="296.75732" />
      <path
         style="color:#000000;fill:#f75168;fill-opacity:1;stroke-width:0.264583px;-inkscape-stroke:none"
         d="m -118.51783,427.71964 0.19792,0.0543 -12.361,45.05306 h 40.795437 v -37.43544 z"
         id="path85668" />
      <path
         style="color:#000000;fill:#e83a4e;fill-opacity:1;stroke-width:0.264583px;-inkscape-stroke:none"
         d="m -178.83611,411.55732 v 61.26964 h 48.01722 l -0.12764,-0.0351 12.37082,-45.08769 z"
         id="path85670" />
      <circle
         style="fill:#e83a4e;fill-opacity:1;stroke:none;stroke-width:0"
         id="circle85672"
         cx="-125.98293"
         cy="455.4241"
         r="10.296257" />
      <rect
         style="fill:#f7f8f3;fill-opacity:1;stroke-width:0"
         id="rect85680"
         width="88.950272"
         height="176.06963"
         x="-79.152771"
         y="296.75732" />
      <path
         id="path85694"
         style="fill:#e6ebf3;fill-opacity:1;stroke:none;stroke-width:0"
         d="m -34.677473,416.52704 a 58.757534,58.757534 0 0 0 -44.475322,20.42252 v 35.8774 H 9.7973314 V 436.89272 A 58.757534,58.757534 0 0 0 -34.677473,416.52704 Z" />
      <path
         id="path85696"
         style="fill:#cfd8e6;fill-opacity:1;stroke:none;stroke-width:0"
         d="m -34.677473,452.48298 a 16.662584,16.662584 0 0 0 -16.66255,16.66255 16.662584,16.662584 0 0 0 0.412379,3.68143 h 32.499824 a 16.662584,16.662584 0 0 0 0.412895,-3.68143 16.662584,16.662584 0 0 0 -16.662548,-16.66255 z" />
      <rect
         style="fill:#78bcc4;fill-opacity:1;stroke-width:0"
         id="rect85698"
         width="88.950272"
         height="176.06963"
         x="23.161354"
         y="296.75732" />
      <path
         id="path85700"
         style="fill:#97cac4;fill-opacity:1;stroke:none;stroke-width:0"
         d="m 112.11149,385.26797 a 72.496856,72.496856 0 0 0 -66.107068,72.18474 72.496856,72.496856 0 0 0 1.703256,15.37425 h 64.403812 z" />
      <path
         id="path85702"
         style="fill:#5fa4c4;fill-opacity:0.466667;stroke:none;stroke-width:0"
         d="m 23.161372,385.2442 v 87.58276 H 87.565198 A 72.496856,72.496856 0 0 0 89.268454,457.45271 72.496856,72.496856 0 0 0 23.161372,385.2442 Z" />
      <rect
         style="fill:#002c3e;fill-opacity:1;stroke-width:0"
         id="rect85726"
         width="88.950272"
         height="176.06963"
         x="133.07594"
         y="296.75732" />
      <path
         id="path85728"
         style="fill:#dd6f88;fill-opacity:0.753846;stroke:none;stroke-width:0"
         inkscape:transform-center-x="4.7140452e-06"
         inkscape:transform-center-y="-17.04539"
         d="m 177.55091,392.19416 -29.52326,51.13641 -14.95155,25.89661 v 3.59978 h 88.95013 v -3.59926 l -14.95155,-25.89713 z"
         sodipodi:nodetypes="cccccccc" />
      <path
         id="path85730"
         style="fill:#dd6f88;fill-opacity:0.753846;stroke:none;stroke-width:0"
         inkscape:transform-center-x="4.7140452e-06"
         inkscape:transform-center-y="-17.04539"
         d="m 177.55091,424.93479 -27.64998,47.89217 h 55.3005 z" />
      <path
         id="path85732"
         style="fill:#dd9488;fill-opacity:0.753846;stroke:none;stroke-width:0"
         inkscape:transform-center-x="4.7140452e-06"
         inkscape:transform-center-y="-17.04539"
         d="m 177.55091,457.67543 -8.74778,15.15153 h 17.49557 z" />
      <rect
         style="fill:#3772ff;fill-opacity:1;stroke-width:0"
         id="rect85742"
         width="88.950272"
         height="176.06963"
         x="239.71263"
         y="296.75732" />
      <path
         id="path85748"
         style="fill:#3768ed;fill-opacity:1;stroke:none;stroke-width:0"
         d="m 252.31169,346.43881 a 51.959137,51.959137 0 0 0 -12.5992,1.58072 v 100.75683 a 51.959137,51.959137 0 0 0 12.5992,1.58072 51.959137,51.959137 0 0 0 51.95914,-51.95913 51.959137,51.959137 0 0 0 -51.95914,-51.95914 z" />
      <path
         id="path85750"
         style="fill:#44b5ff;fill-opacity:1;stroke:none;stroke-width:0"
         d="m 322.66762,447.72462 a 17.569986,17.569986 0 0 0 -17.56997,17.56998 17.569986,17.569986 0 0 0 1.70016,7.53236 h 21.86532 v -24.04608 a 17.569986,17.569986 0 0 0 -5.99551,-1.05626 z" />
    </g>
  </g>
</svg>
