<?xml version="1.0" encoding="UTF-8" standalone="no"?>
<!-- Created with Inkscape (http://www.inkscape.org/) -->

<svg
   width="88.950287mm"
   height="176.06963mm"
   viewBox="0 0 88.950286 176.06962"
   version="1.1"
   id="svg5"
   inkscape:version="1.1 (c68e22c387, 2021-05-23)"
   sodipodi:docname="misi-4.svg"
   xmlns:inkscape="http://www.inkscape.org/namespaces/inkscape"
   xmlns:sodipodi="http://sodipodi.sourceforge.net/DTD/sodipodi-0.dtd"
   xmlns="http://www.w3.org/2000/svg"
   xmlns:svg="http://www.w3.org/2000/svg">
  <sodipodi:namedview
     id="namedview7"
     pagecolor="#ffffff"
     bordercolor="#999999"
     borderopacity="1"
     inkscape:pageshadow="0"
     inkscape:pageopacity="0"
     inkscape:pagecheckerboard="0"
     inkscape:document-units="mm"
     showgrid="false"
     inkscape:snap-page="false"
     inkscape:snap-intersection-paths="true"
     inkscape:snap-smooth-nodes="false"
     inkscape:snap-center="false"
     inkscape:object-paths="true"
     inkscape:snap-others="true"
     inkscape:zoom="0.45254834"
     inkscape:cx="517.07183"
     inkscape:cy="275.10873"
     inkscape:window-width="1920"
     inkscape:window-height="991"
     inkscape:window-x="-9"
     inkscape:window-y="-9"
     inkscape:window-maximized="1"
     inkscape:current-layer="g1627"
     fit-margin-top="0"
     fit-margin-left="0"
     fit-margin-right="0"
     fit-margin-bottom="0" />
  <defs
     id="defs2" />
  <g
     inkscape:label="Layer 1"
     inkscape:groupmode="layer"
     id="layer1"
     transform="translate(519.02259,-410.85891)">
    <g
       id="g1627"
       transform="translate(-513.99568,-335.6901)">
      <rect
         style="fill:#3772ff;fill-opacity:1;stroke-width:0"
         id="rect72359"
         width="88.950272"
         height="176.06963"
         x="-5.026957"
         y="746.54901" />
      <path
         id="path72861"
         style="fill:#3768ed;fill-opacity:1;stroke:none;stroke-width:0"
         d="m 7.5721083,796.23047 a 51.959137,51.959137 0 0 0 -12.5992,1.58072 v 100.75683 a 51.959137,51.959137 0 0 0 12.5992,1.58072 A 51.959137,51.959137 0 0 0 59.531248,848.18961 51.959137,51.959137 0 0 0 7.5721083,796.23047 Z" />
      <path
         id="path73088"
         style="fill:#44b5ff;fill-opacity:1;stroke:none;stroke-width:0"
         d="m 77.92804,897.51627 a 17.569986,17.569986 0 0 0 -17.569973,17.56999 17.569986,17.569986 0 0 0 1.700159,7.53236 h 21.865325 v -24.04608 a 17.569986,17.569986 0 0 0 -5.995511,-1.05627 z" />
    </g>
  </g>
</svg>
